<?xml version="1.0" encoding="utf-8"?>
<!-- Generator: Adobe Illustrator 22.0.0, SVG Export Plug-In . SVG Version: 6.00 Build 0)  -->
<svg version="1.1" id="Calque_1" xmlns="http://www.w3.org/2000/svg" xmlns:xlink="http://www.w3.org/1999/xlink" x="0px" y="0px"
	 viewBox="0 0 81.3 29.7" style="enable-background:new 0 0 81.3 29.7;" xml:space="preserve">
<style type="text/css">
	.st0{fill:#000000;}
	.st1{fill:#1C9BC5;}
</style>
<path class="st0" d="M29.5,22c-0.3-0.2-0.6-0.3-0.9-0.4c-0.4-0.1-0.8-0.2-1.3-0.2c-0.4,0-0.8,0-1,0.1c-0.3,0.1-0.5,0.2-0.7,0.4
	c-0.4,0.3-0.6,0.7-0.6,1.2c0,0.4,0.1,0.7,0.4,1c0.1,0.1,0.3,0.2,0.5,0.3c0.2,0.1,0.4,0.1,0.7,0.1c0.5,0,1-0.1,1.6-0.4
	c0.5-0.2,0.9-0.5,1.2-0.9V22z M29.5,26.7v-0.8c-0.5,0.3-0.9,0.5-1.5,0.7c-0.5,0.2-1.1,0.3-1.6,0.3c-1.1,0-2.1-0.4-2.8-1.1
	c-0.8-0.7-1.1-1.6-1.1-2.7c0-1.2,0.4-2.1,1.3-2.9c0.4-0.4,0.9-0.7,1.5-0.8c0.6-0.2,1.2-0.3,1.8-0.3c0.5,0,1.1,0.1,1.6,0.2
	c0.1,0,0.2,0.1,0.4,0.1c0.1,0,0.3,0.1,0.4,0.1v-1.4c0-0.3,0-0.5-0.1-0.7c-0.1-0.2-0.2-0.3-0.3-0.4c-0.2-0.1-0.4-0.2-0.7-0.3
	c-0.3-0.1-0.6-0.1-1-0.1c-0.2,0-0.4,0-0.7,0.1c-0.3,0.1-0.5,0.1-0.8,0.2c-0.3,0.1-0.5,0.2-0.7,0.2c-0.2,0.1-0.4,0.2-0.6,0.2l-0.8-2
	c0.5-0.2,1-0.4,1.3-0.5c0.4-0.1,0.8-0.2,1.2-0.3c0.4-0.1,0.8-0.2,1.1-0.2c0.7,0,1.3,0.1,1.9,0.2c0.6,0.1,1,0.4,1.5,0.7
	c0.4,0.3,0.8,0.7,1,1.2c0.2,0.5,0.3,1,0.3,1.6v6.1h1.8v2.4H29.5z"/>
<path class="st0" d="M43.2,18c-0.7-0.7-1.5-1.1-2.4-1.1c-0.9,0-1.7,0.4-2.4,1.1c-0.7,0.7-1,1.7-1,2.8c0,1.1,0.3,1.9,1,2.7
	c0.7,0.7,1.5,1.1,2.4,1.1c1,0,1.8-0.3,2.4-1c0.6-0.7,1-1.6,1-2.7C44.2,19.6,43.9,18.7,43.2,18 M44.2,26.7v-1
	c-0.1,0.1-0.3,0.2-0.4,0.3c-0.1,0.1-0.3,0.2-0.4,0.2c-0.8,0.4-1.6,0.6-2.5,0.6c-1.7,0-3.1-0.6-4.2-1.8C35.5,24,35,22.5,35,20.8
	c0-1.8,0.5-3.3,1.6-4.5c1.1-1.2,2.5-1.8,4.2-1.8c0.9,0,1.7,0.2,2.5,0.6c0.3,0.2,0.6,0.4,0.9,0.6v-5.5h2.6v14h1.9v2.4H44.2z"/>
<path class="st1" d="M53.7,12.8c-0.3,0.3-0.7,0.5-1.1,0.5s-0.8-0.2-1.1-0.5c-0.3-0.3-0.5-0.7-0.5-1.1c0-0.5,0.2-0.8,0.5-1.2
	c0.3-0.3,0.7-0.5,1.1-0.5s0.8,0.2,1.1,0.5c0.3,0.3,0.5,0.7,0.5,1.1C54.2,12.1,54,12.5,53.7,12.8 M51.7,26.7l0-1v-8.5h-1.8v-2.4h4.4
	v9.5H56v2.4H51.7z"/>
<path class="st1" d="M65.5,26.7v-0.8c-0.1,0.1-0.3,0.1-0.4,0.2c-0.1,0.1-0.3,0.1-0.4,0.2c-0.8,0.4-1.6,0.5-2.5,0.5
	c-0.5,0-0.9-0.1-1.4-0.2c-0.4-0.1-0.8-0.4-1.1-0.7c-0.3-0.3-0.6-0.7-0.7-1.1c-0.1-0.4-0.2-0.9-0.2-1.3v-6.3h-1.8v-2.4h4.4v8.5
	c0,0.7,0.3,1.1,1,1.1c0.5,0,1.1-0.2,1.7-0.5c0.6-0.3,1.1-0.6,1.4-1v-8.1h2.6v9.5h1.8v2.4H65.5z"/>
<path class="st1" d="M75.7,27c-0.4,0-0.8-0.1-1.1-0.2c-0.3-0.1-0.6-0.3-0.9-0.6c-0.3-0.3-0.4-0.5-0.5-0.9c-0.1-0.3-0.1-0.7-0.1-1.1
	v-7h-1.9v-2.4h1.9v-2.3l2.6-0.1v2.4h2.2v2.4h-2.2v6.8c0,0.2,0,0.4,0.1,0.4h0.1l2-0.3v2.4L75.7,27z"/>
<polygon class="st1" points="23.2,3.1 16.3,7 16.3,14.9 23.2,11 "/>
<polygon class="st1" points="9.5,18.9 9.5,26.8 16.3,22.8 16.3,14.9 "/>
<polygon class="st0" points="2.7,22.8 9.5,26.8 9.5,18.9 2.7,14.9 "/>
<polygon class="st0" points="9.5,3.1 9.5,11 16.3,14.9 16.3,7 "/>
</svg>
